<svg xmlns="http://www.w3.org/2000/svg" viewBox="0 0 1200 800" role="img" aria-label="National Youth Day event placeholder">
  <rect width="1200" height="800" rx="36" fill="#FFF9F0" />
  <path d="M70 140C286 94 520 96 728 164C862 208 980 212 1130 150V252C992 316 852 320 694 284C482 236 286 234 70 292V140Z" fill="#DF7813" />
  <path d="M70 334C302 284 512 290 706 378C860 448 996 454 1130 406V520C990 570 836 574 650 500C474 430 286 420 70 476V334Z" fill="#237D3F" />
  <circle cx="642" cy="304" r="62" fill="#F7F5EF" stroke="#013B69" stroke-width="12" />
  <g fill="#013B69" opacity="0.86">
    <circle cx="344" cy="620" r="34" />
    <circle cx="478" cy="570" r="34" />
    <circle cx="616" cy="630" r="34" />
    <circle cx="756" cy="574" r="34" />
    <circle cx="890" cy="626" r="34" />
  </g>
</svg>
